<svg xmlns="http://www.w3.org/2000/svg" width="1008.4000244140625" height="238" style="width: 1008.4px; height: 238px;"><defs id="defs_11"/><path opacity="1" stroke-width="1" stroke-opacity="1" fill-opacity="1" d="M 0,0 l 1008.4000244140625,0 l 0,238 l-1008.4000244140625 0 z" fill="#fff" stroke="none"/><g opacity="1" transform="matrix(1,0,0,1,15,15)"><g opacity="1" class="class__entity"><path opacity="1" stroke-width="1" stroke-opacity="1" fill-opacity="1" d="M 2,0 l 566.4000244140625,0 a 2,2,0,0,1,2,2 l 0,204 a 2,2,0,0,1,-2,2 l -566.4000244140625,0 a 2,2,0,0,1,-2,-2 l 0,-204 a 2,2,0,0,1,2,-2 z" fill="#fdb05e" stroke="#3b4044"/><path opacity="1" stroke-width="1" stroke-opacity="1" fill-opacity="1" d="M 0,33 l 570.4000244140625,0 l 0,175 l-570.4000244140625 0 z" fill="#fffff7" stroke="#3b4044" class="class__section-bg"/><text dominant-baseline="hanging" text-anchor="middle" opacity="1" stroke-width="1" stroke-opacity="1" fill-opacity="1" x="285.20001220703125" y="12" font-size="14" font-family="Source Code Pro, sans-serif" font-style="normal" font-weight="bold" font-variant="normal" fill="#3b4044" width="92.4000015258789" height="13" paint-order="stroke" style="stroke-linecap:butt; stroke-linejoin:miter;" stroke="none">GameManager</text><text dominant-baseline="hanging" text-anchor="middle" opacity="1" stroke-width="1" stroke-opacity="1" fill-opacity="1" x="66.79999923706055" y="37" font-size="14" font-family="Source Code Pro, sans-serif" font-style="normal" font-weight="normal" font-variant="normal" fill="#3b4044" width="117.5999984741211" height="13" paint-order="stroke" style="stroke-linecap:butt; stroke-linejoin:miter;" stroke="none">int wordLength</text><text dominant-baseline="hanging" text-anchor="middle" opacity="1" stroke-width="1" stroke-opacity="1" fill-opacity="1" x="54.20000076293945" y="62" font-size="14" font-family="Source Code Pro, sans-serif" font-style="normal" font-weight="normal" font-variant="normal" fill="#3b4044" width="92.4000015258789" height="13" paint-order="stroke" style="stroke-linecap:butt; stroke-linejoin:miter;" stroke="none">String word</text><text dominant-baseline="hanging" text-anchor="middle" opacity="1" stroke-width="1" stroke-opacity="1" fill-opacity="1" x="62.599998474121094" y="87" font-size="14" font-family="Source Code Pro, sans-serif" font-style="normal" font-weight="normal" font-variant="normal" fill="#3b4044" width="109.19999694824219" height="13" paint-order="stroke" style="stroke-linecap:butt; stroke-linejoin:miter;" stroke="none">GameManager()</text><text dominant-baseline="hanging" text-anchor="middle" opacity="1" stroke-width="1" stroke-opacity="1" fill-opacity="1" x="285.20001220703125" y="112" font-size="14" font-family="Source Code Pro, sans-serif" font-style="normal" font-weight="normal" font-variant="normal" fill="#3b4044" width="554.4000244140625" height="13" paint-order="stroke" style="stroke-linecap:butt; stroke-linejoin:miter;" stroke="none">int numCorrectLetter(String word, HasMap&lt;Character, Integer&gt; wMap)</text><text dominant-baseline="hanging" text-anchor="middle" opacity="1" stroke-width="1" stroke-opacity="1" fill-opacity="1" x="213.8000030517578" y="137" font-size="14" font-family="Source Code Pro, sans-serif" font-style="normal" font-weight="normal" font-variant="normal" fill="#3b4044" width="411.6000061035156" height="13" paint-order="stroke" style="stroke-linecap:butt; stroke-linejoin:miter;" stroke="none">int numCorrectPosition(String word, String guess)</text><text dominant-baseline="hanging" text-anchor="middle" opacity="1" stroke-width="1" stroke-opacity="1" fill-opacity="1" x="222.1999969482422" y="162" font-size="14" font-family="Source Code Pro, sans-serif" font-style="normal" font-weight="normal" font-variant="normal" fill="#3b4044" width="428.3999938964844" height="13" paint-order="stroke" style="stroke-linecap:butt; stroke-linejoin:miter;" stroke="none">HashMap&lt;Character, Integer&gt; wordMapGen(String word)</text><text dominant-baseline="hanging" text-anchor="middle" opacity="1" stroke-width="1" stroke-opacity="1" fill-opacity="1" x="58.400001525878906" y="187" font-size="14" font-family="Source Code Pro, sans-serif" font-style="normal" font-weight="normal" font-variant="normal" fill="#3b4044" width="100.80000305175781" height="13" paint-order="stroke" style="stroke-linecap:butt; stroke-linejoin:miter;" stroke="none">void Start()</text><line opacity="1" stroke-width="1" stroke-opacity="1" fill-opacity="1" x1="-285.20001220703125" y1="-71" x2="285.20001220703125" y2="-71" stroke="#3b4044" class="class-entity__sep-line" transform="matrix(1,0,0,1,285.20001220703125,104)"/><line opacity="1" stroke-width="1" stroke-opacity="1" fill-opacity="1" x1="-285.20001220703125" y1="-21" x2="285.20001220703125" y2="-21" stroke="#3b4044" class="class-entity__sep-line" transform="matrix(1,0,0,1,285.20001220703125,104)"/></g><g opacity="1" class="class__entity"><path opacity="1" stroke-width="1" stroke-opacity="1" fill-opacity="1" d="M 592.4000244140625,63.5 l 146.39999389648438,0 a 2,2,0,0,1,2,2 l 0,77 a 2,2,0,0,1,-2,2 l -146.39999389648438,0 a 2,2,0,0,1,-2,-2 l 0,-77 a 2,2,0,0,1,2,-2 z" fill="#fdb05e" stroke="#3b4044"/><path opacity="1" stroke-width="1" stroke-opacity="1" fill-opacity="1" d="M 590.4000244140625,94.5 l 150.39999389648438,0 l 0,50 l-150.39999389648438 0 z" fill="#fffff7" stroke="#3b4044" class="class__section-bg"/><text dominant-baseline="hanging" text-anchor="middle" opacity="1" stroke-width="1" stroke-opacity="1" fill-opacity="1" x="665.6000213623047" y="75.5" font-size="14" font-family="Source Code Pro, sans-serif" font-style="normal" font-weight="bold" font-variant="normal" fill="#3b4044" width="58.79999923706055" height="11" paint-order="stroke" style="stroke-linecap:butt; stroke-linejoin:miter;" stroke="none">WordGen</text><text dominant-baseline="hanging" text-anchor="middle" opacity="1" stroke-width="1" stroke-opacity="1" fill-opacity="1" x="657.200023651123" y="98.5" font-size="14" font-family="Source Code Pro, sans-serif" font-style="normal" font-weight="normal" font-variant="normal" fill="#3b4044" width="117.5999984741211" height="13" paint-order="stroke" style="stroke-linecap:butt; stroke-linejoin:miter;" stroke="none">String[] words</text><text dominant-baseline="hanging" text-anchor="middle" opacity="1" stroke-width="1" stroke-opacity="1" fill-opacity="1" x="665.6000213623047" y="123.5" font-size="14" font-family="Source Code Pro, sans-serif" font-style="normal" font-weight="normal" font-variant="normal" fill="#3b4044" width="134.39999389648438" height="13" paint-order="stroke" style="stroke-linecap:butt; stroke-linejoin:miter;" stroke="none">String getWord()</text><line opacity="1" stroke-width="1" stroke-opacity="1" fill-opacity="1" x1="-75.19999694824219" y1="-9.5" x2="75.19999694824219" y2="-9.5" stroke="#3b4044" class="class-entity__sep-line" transform="matrix(1,0,0,1,665.6000366210938,104)"/><line opacity="1" stroke-width="1" stroke-opacity="1" fill-opacity="1" x1="-75.19999694824219" y1="15.5" x2="75.19999694824219" y2="15.5" stroke="#3b4044" class="class-entity__sep-line" transform="matrix(1,0,0,1,665.6000366210938,104)"/></g><g opacity="1" class="class__entity"><path opacity="1" stroke-width="1" stroke-opacity="1" fill-opacity="1" d="M 762.8000183105469,69 l 213.60000610351562,0 a 2,2,0,0,1,2,2 l 0,66 a 2,2,0,0,1,-2,2 l -213.60000610351562,0 a 2,2,0,0,1,-2,-2 l 0,-66 a 2,2,0,0,1,2,-2 z" fill="#fdb05e" stroke="#3b4044"/><path opacity="1" stroke-width="1" stroke-opacity="1" fill-opacity="1" d="M 760.8000183105469,102 l 217.60000610351562,0 l 0,37 l-217.60000610351562 0 z" fill="#fffff7" stroke="#3b4044" class="class__section-bg"/><text dominant-baseline="hanging" text-anchor="middle" opacity="1" stroke-width="1" stroke-opacity="1" fill-opacity="1" x="869.6000213623047" y="81" font-size="14" font-family="Source Code Pro, sans-serif" font-style="normal" font-weight="bold" font-variant="normal" fill="#3b4044" width="100.80000305175781" height="13" paint-order="stroke" style="stroke-linecap:butt; stroke-linejoin:miter;" stroke="none">GuessingGame</text><text dominant-baseline="hanging" text-anchor="middle" opacity="1" stroke-width="1" stroke-opacity="1" fill-opacity="1" x="768.8000183105469" y="106" font-size="14" font-family="Source Code Pro, sans-serif" font-style="normal" font-weight="normal" font-variant="normal" fill="#3b4044" width="0" height="0" paint-order="stroke" style="stroke-linecap:butt; stroke-linejoin:miter;" stroke="none"/><text dominant-baseline="hanging" text-anchor="middle" opacity="1" stroke-width="1" stroke-opacity="1" fill-opacity="1" x="869.6000213623047" y="118" font-size="14" font-family="Source Code Pro, sans-serif" font-style="normal" font-weight="normal" font-variant="normal" fill="#3b4044" width="201.60000610351562" height="13" paint-order="stroke" style="stroke-linecap:butt; stroke-linejoin:miter;" stroke="none">void main(String[] args)</text><line opacity="1" stroke-width="1" stroke-opacity="1" fill-opacity="1" x1="-108.80000305175781" y1="-2" x2="108.80000305175781" y2="-2" stroke="#3b4044" class="class-entity__sep-line" transform="matrix(1,0,0,1,869.6000366210938,104)"/><line opacity="1" stroke-width="1" stroke-opacity="1" fill-opacity="1" x1="-108.80000305175781" y1="10" x2="108.80000305175781" y2="10" stroke="#3b4044" class="class-entity__sep-line" transform="matrix(1,0,0,1,869.6000366210938,104)"/></g><g opacity="1"/></g></svg>